G04 (created by PCBNEW (2013-07-07 BZR 4022)-stable) date 8/21/2014 4:39:55 PM*
%MOIN*%
G04 Gerber Fmt 3.4, Leading zero omitted, Abs format*
%FSLAX34Y34*%
G01*
G70*
G90*
G04 APERTURE LIST*
%ADD10C,0.00393701*%
%ADD11C,0.0001*%
G04 APERTURE END LIST*
G54D10*
G54D11*
G36*
X59618Y-83700D02*
X59687Y-83664D01*
X59841Y-83567D01*
X60060Y-83424D01*
X60319Y-83250D01*
X60579Y-83074D01*
X60793Y-82931D01*
X60943Y-82835D01*
X61005Y-82800D01*
X61039Y-82812D01*
X61163Y-82872D01*
X61342Y-82965D01*
X61446Y-83019D01*
X61611Y-83090D01*
X61692Y-83105D01*
X61706Y-83082D01*
X61766Y-82956D01*
X61861Y-82741D01*
X61985Y-82456D01*
X62127Y-82123D01*
X62279Y-81763D01*
X62432Y-81397D01*
X62577Y-81047D01*
X62705Y-80733D01*
X62808Y-80477D01*
X62876Y-80300D01*
X62901Y-80223D01*
X62893Y-80207D01*
X62811Y-80127D01*
X62667Y-80019D01*
X62357Y-79767D01*
X62050Y-79384D01*
X61863Y-78949D01*
X61801Y-78466D01*
X61854Y-78018D01*
X62030Y-77584D01*
X62330Y-77197D01*
X62694Y-76909D01*
X63120Y-76727D01*
X63598Y-76668D01*
X64059Y-76720D01*
X64499Y-76893D01*
X64886Y-77188D01*
X65049Y-77377D01*
X65275Y-77769D01*
X65403Y-78192D01*
X65417Y-78300D01*
X65398Y-78760D01*
X65262Y-79202D01*
X65018Y-79598D01*
X64680Y-79922D01*
X64638Y-79952D01*
X64481Y-80069D01*
X64376Y-80150D01*
X64294Y-80217D01*
X64881Y-81631D01*
X64975Y-81856D01*
X65136Y-82242D01*
X65278Y-82575D01*
X65391Y-82840D01*
X65469Y-83017D01*
X65504Y-83088D01*
X65508Y-83092D01*
X65559Y-83101D01*
X65668Y-83062D01*
X65864Y-82966D01*
X65995Y-82899D01*
X66145Y-82827D01*
X66213Y-82800D01*
X66269Y-82831D01*
X66414Y-82925D01*
X66624Y-83065D01*
X66877Y-83237D01*
X67117Y-83400D01*
X67339Y-83547D01*
X67501Y-83650D01*
X67578Y-83692D01*
X67591Y-83692D01*
X67661Y-83653D01*
X67787Y-83547D01*
X67980Y-83365D01*
X68253Y-83096D01*
X68294Y-83055D01*
X68518Y-82827D01*
X68700Y-82636D01*
X68822Y-82500D01*
X68866Y-82438D01*
X68866Y-82437D01*
X68826Y-82361D01*
X68724Y-82200D01*
X68577Y-81976D01*
X68398Y-81713D01*
X67930Y-81033D01*
X68187Y-80391D01*
X68266Y-80195D01*
X68366Y-79956D01*
X68441Y-79786D01*
X68479Y-79712D01*
X68549Y-79687D01*
X68725Y-79645D01*
X68979Y-79592D01*
X69283Y-79535D01*
X69572Y-79482D01*
X69834Y-79433D01*
X70023Y-79396D01*
X70108Y-79379D01*
X70128Y-79367D01*
X70145Y-79326D01*
X70156Y-79237D01*
X70163Y-79078D01*
X70166Y-78828D01*
X70166Y-78466D01*
X70166Y-78427D01*
X70163Y-78081D01*
X70157Y-77806D01*
X70147Y-77623D01*
X70135Y-77552D01*
X70134Y-77551D01*
X70053Y-77531D01*
X69868Y-77492D01*
X69607Y-77441D01*
X69295Y-77382D01*
X69276Y-77378D01*
X68965Y-77318D01*
X68705Y-77264D01*
X68523Y-77222D01*
X68446Y-77198D01*
X68430Y-77176D01*
X68367Y-77055D01*
X68278Y-76862D01*
X68175Y-76627D01*
X68074Y-76383D01*
X67986Y-76164D01*
X67927Y-76000D01*
X67909Y-75926D01*
X67910Y-75924D01*
X67957Y-75849D01*
X68064Y-75689D01*
X68215Y-75465D01*
X68396Y-75201D01*
X68410Y-75181D01*
X68588Y-74918D01*
X68733Y-74697D01*
X68830Y-74538D01*
X68866Y-74467D01*
X68865Y-74462D01*
X68806Y-74384D01*
X68672Y-74235D01*
X68481Y-74035D01*
X68251Y-73803D01*
X68178Y-73731D01*
X67923Y-73482D01*
X67745Y-73319D01*
X67635Y-73232D01*
X67582Y-73213D01*
X67580Y-73214D01*
X67501Y-73262D01*
X67336Y-73370D01*
X67110Y-73522D01*
X66844Y-73703D01*
X66825Y-73716D01*
X66563Y-73894D01*
X66344Y-74042D01*
X66189Y-74145D01*
X66121Y-74186D01*
X66109Y-74186D01*
X66002Y-74155D01*
X65816Y-74089D01*
X65586Y-74000D01*
X65343Y-73903D01*
X65123Y-73810D01*
X64957Y-73734D01*
X64879Y-73690D01*
X64877Y-73686D01*
X64849Y-73592D01*
X64804Y-73396D01*
X64748Y-73125D01*
X64687Y-72804D01*
X64677Y-72752D01*
X64618Y-72439D01*
X64568Y-72181D01*
X64531Y-72002D01*
X64513Y-71929D01*
X64469Y-71918D01*
X64315Y-71907D01*
X64082Y-71901D01*
X63800Y-71898D01*
X63499Y-71900D01*
X63209Y-71906D01*
X62961Y-71915D01*
X62784Y-71927D01*
X62710Y-71942D01*
X62707Y-71946D01*
X62680Y-72043D01*
X62637Y-72240D01*
X62581Y-72512D01*
X62520Y-72834D01*
X62509Y-72891D01*
X62450Y-73203D01*
X62398Y-73459D01*
X62360Y-73635D01*
X62340Y-73704D01*
X62312Y-73719D01*
X62183Y-73775D01*
X61974Y-73862D01*
X61715Y-73967D01*
X61113Y-74210D01*
X60377Y-73705D01*
X60309Y-73659D01*
X60044Y-73479D01*
X59826Y-73334D01*
X59674Y-73236D01*
X59612Y-73200D01*
X59607Y-73203D01*
X59533Y-73267D01*
X59387Y-73404D01*
X59188Y-73598D01*
X58955Y-73829D01*
X58784Y-74001D01*
X58581Y-74208D01*
X58452Y-74347D01*
X58382Y-74436D01*
X58357Y-74490D01*
X58363Y-74526D01*
X58411Y-74601D01*
X58519Y-74763D01*
X58671Y-74987D01*
X58850Y-75248D01*
X58997Y-75465D01*
X59158Y-75713D01*
X59262Y-75890D01*
X59298Y-75976D01*
X59289Y-76012D01*
X59238Y-76156D01*
X59150Y-76374D01*
X59039Y-76634D01*
X58783Y-77217D01*
X58400Y-77291D01*
X58169Y-77335D01*
X57845Y-77397D01*
X57534Y-77457D01*
X57050Y-77551D01*
X57033Y-79334D01*
X57108Y-79366D01*
X57179Y-79385D01*
X57359Y-79425D01*
X57615Y-79476D01*
X57917Y-79533D01*
X58175Y-79581D01*
X58434Y-79630D01*
X58620Y-79666D01*
X58703Y-79684D01*
X58724Y-79712D01*
X58789Y-79838D01*
X58880Y-80037D01*
X58984Y-80277D01*
X59088Y-80527D01*
X59179Y-80756D01*
X59243Y-80931D01*
X59267Y-81022D01*
X59231Y-81090D01*
X59134Y-81243D01*
X58990Y-81460D01*
X58814Y-81718D01*
X58638Y-81976D01*
X58489Y-82196D01*
X58385Y-82355D01*
X58342Y-82427D01*
X58363Y-82476D01*
X58467Y-82601D01*
X58661Y-82803D01*
X58950Y-83089D01*
X58997Y-83135D01*
X59228Y-83356D01*
X59422Y-83535D01*
X59558Y-83656D01*
X59618Y-83700D01*
X59618Y-83700D01*
G37*
M02*
