G04 (created by PCBNEW (2013-07-07 BZR 4022)-stable) date 8/21/2014 4:39:55 PM*
%MOIN*%
G04 Gerber Fmt 3.4, Leading zero omitted, Abs format*
%FSLAX34Y34*%
G01*
G70*
G90*
G04 APERTURE LIST*
%ADD10C,0.00393701*%
%ADD11R,0.07X0.07*%
%ADD12C,0.07*%
%ADD13R,0.35X0.35*%
%ADD14R,0.045X0.02*%
%ADD15R,0.05X0.02*%
%ADD16R,0.08X0.06*%
%ADD17R,0.06X0.08*%
%ADD18C,0.0590551*%
%ADD19C,0.066*%
%ADD20C,0.035*%
%ADD21C,0.01*%
G04 APERTURE END LIST*
G54D10*
G54D11*
X61500Y-92500D03*
G54D12*
X59500Y-92500D03*
X60500Y-92500D03*
G54D13*
X60500Y-86000D03*
G54D14*
X49250Y-88750D03*
X49250Y-88250D03*
X49250Y-87750D03*
X49250Y-87250D03*
X51750Y-87250D03*
X51750Y-87750D03*
X51750Y-88250D03*
X51750Y-88750D03*
G54D15*
X37700Y-74750D03*
X37700Y-75250D03*
X37700Y-75750D03*
X37700Y-76250D03*
X37700Y-76750D03*
X37700Y-77250D03*
X37700Y-77750D03*
X37700Y-78250D03*
X37700Y-78750D03*
X37700Y-79250D03*
X37700Y-79750D03*
X37700Y-80250D03*
X37700Y-80750D03*
X37700Y-81250D03*
X41300Y-81250D03*
X41300Y-80750D03*
X41300Y-80250D03*
X41300Y-79750D03*
X41300Y-79250D03*
X41300Y-78750D03*
X41300Y-78250D03*
X41300Y-77750D03*
X41300Y-77250D03*
X41300Y-76750D03*
X41300Y-76250D03*
X41300Y-75750D03*
X41300Y-75250D03*
X41300Y-74750D03*
G54D16*
X45500Y-87650D03*
X45500Y-86350D03*
X48000Y-74850D03*
X48000Y-76150D03*
X46500Y-74850D03*
X46500Y-76150D03*
G54D17*
X53650Y-77250D03*
X52350Y-77250D03*
X52350Y-78500D03*
X53650Y-78500D03*
G54D16*
X51000Y-79850D03*
X51000Y-81150D03*
X49500Y-79850D03*
X49500Y-81150D03*
X48000Y-79850D03*
X48000Y-81150D03*
X46500Y-79850D03*
X46500Y-81150D03*
X63500Y-93150D03*
X63500Y-91850D03*
X51000Y-74850D03*
X51000Y-76150D03*
X41500Y-87650D03*
X41500Y-86350D03*
X40500Y-87650D03*
X40500Y-86350D03*
X39500Y-87650D03*
X39500Y-86350D03*
X37500Y-87650D03*
X37500Y-86350D03*
X38500Y-86350D03*
X38500Y-87650D03*
G54D17*
X33850Y-89500D03*
X35150Y-89500D03*
G54D16*
X42500Y-86350D03*
X42500Y-87650D03*
X43500Y-86350D03*
X43500Y-87650D03*
X44500Y-86350D03*
X44500Y-87650D03*
X49500Y-74850D03*
X49500Y-76150D03*
G54D17*
X66150Y-89000D03*
X64850Y-89000D03*
X53850Y-86500D03*
X55150Y-86500D03*
X53850Y-89000D03*
X55150Y-89000D03*
G54D16*
X57000Y-88850D03*
X57000Y-90150D03*
G54D18*
X40500Y-91500D03*
X40500Y-90500D03*
X40500Y-89500D03*
X41500Y-91500D03*
X41500Y-90500D03*
X41500Y-89500D03*
X42500Y-91500D03*
X42500Y-90500D03*
X42500Y-89500D03*
X43500Y-91500D03*
X43500Y-90500D03*
X43500Y-89500D03*
X44500Y-91500D03*
X44500Y-90500D03*
X44500Y-89500D03*
X45500Y-91500D03*
X45500Y-90500D03*
X45500Y-89500D03*
X39500Y-91500D03*
X39500Y-90500D03*
X39500Y-89500D03*
X38500Y-91500D03*
X38500Y-90500D03*
X38500Y-89500D03*
X37500Y-91500D03*
X37500Y-90500D03*
X37500Y-89500D03*
X36500Y-91500D03*
X36500Y-90500D03*
X36500Y-89500D03*
X32000Y-88000D03*
X32000Y-87000D03*
X32000Y-86000D03*
X33000Y-86000D03*
X33000Y-87000D03*
X33000Y-88000D03*
X33000Y-85000D03*
X32000Y-85000D03*
X33000Y-84000D03*
X32000Y-84000D03*
X33000Y-83000D03*
X32000Y-83000D03*
X33000Y-82000D03*
X32000Y-82000D03*
X33000Y-81000D03*
X32000Y-81000D03*
X33000Y-80000D03*
X32000Y-80000D03*
X33000Y-79000D03*
X32000Y-79000D03*
X33000Y-78000D03*
X32000Y-78000D03*
X33000Y-77000D03*
X32000Y-77000D03*
X33000Y-76000D03*
X32000Y-76000D03*
G54D19*
X66500Y-92500D03*
X65500Y-92500D03*
X68000Y-89000D03*
X69000Y-89000D03*
G54D18*
X54000Y-92500D03*
X55000Y-92500D03*
X56000Y-82000D03*
X56000Y-83000D03*
X57000Y-83000D03*
X57000Y-82000D03*
X47000Y-77500D03*
X47000Y-78500D03*
X48000Y-77500D03*
X48000Y-78500D03*
X49000Y-77500D03*
X49000Y-78500D03*
X50000Y-77500D03*
X50000Y-78500D03*
X51000Y-77500D03*
X51000Y-78500D03*
X68500Y-92500D03*
X68500Y-91500D03*
G54D20*
X30800Y-86000D03*
X31000Y-90800D03*
X47800Y-83000D03*
X47400Y-82200D03*
X40400Y-80600D03*
X38800Y-80100D03*
X51700Y-86300D03*
X48000Y-89800D03*
X39600Y-75400D03*
X51000Y-82300D03*
X42000Y-76100D03*
X42600Y-76800D03*
X43300Y-76000D03*
X44000Y-76700D03*
X42600Y-75200D03*
X47500Y-73800D03*
X45400Y-74700D03*
X48800Y-74200D03*
X44400Y-77000D03*
X45400Y-73400D03*
X55000Y-76300D03*
X54900Y-78500D03*
X36500Y-87000D03*
X34300Y-85900D03*
X36700Y-79400D03*
X42000Y-84400D03*
X36300Y-81600D03*
X39500Y-85600D03*
X36500Y-82200D03*
X40500Y-85600D03*
X37400Y-82600D03*
X41500Y-85600D03*
X35600Y-80300D03*
X34200Y-83700D03*
X35000Y-83200D03*
X30900Y-84900D03*
X31500Y-89500D03*
X37000Y-78900D03*
X42000Y-85000D03*
X52200Y-84300D03*
X52200Y-86000D03*
X48500Y-88300D03*
X54400Y-87400D03*
X55100Y-88100D03*
X30400Y-92100D03*
X46600Y-87800D03*
X35300Y-87800D03*
X34400Y-85200D03*
X47500Y-87800D03*
X36600Y-80800D03*
X36600Y-80200D03*
X38500Y-76800D03*
X45400Y-81200D03*
X46900Y-88700D03*
X50400Y-90300D03*
X42400Y-80600D03*
X40300Y-79400D03*
X38500Y-78800D03*
X36600Y-77300D03*
X46900Y-81900D03*
G54D21*
X36500Y-91500D02*
X31700Y-91500D01*
X30800Y-86000D02*
X32000Y-86000D01*
X31700Y-91500D02*
X31000Y-90800D01*
X41300Y-81250D02*
X41300Y-81600D01*
X51100Y-86300D02*
X51700Y-86300D01*
X47800Y-83000D02*
X51100Y-86300D01*
X47200Y-82200D02*
X47400Y-82200D01*
X47100Y-82300D02*
X47200Y-82200D01*
X42000Y-82300D02*
X47100Y-82300D01*
X41300Y-81600D02*
X42000Y-82300D01*
X41300Y-80750D02*
X41300Y-81250D01*
X41300Y-80250D02*
X41300Y-80750D01*
X37700Y-79250D02*
X37950Y-79250D01*
X40750Y-80250D02*
X41300Y-80250D01*
X40400Y-80600D02*
X40750Y-80250D01*
X37950Y-79250D02*
X38800Y-80100D01*
X51750Y-87250D02*
X51750Y-86350D01*
X51750Y-86350D02*
X51700Y-86300D01*
X46300Y-91500D02*
X45500Y-91500D01*
X48000Y-89800D02*
X46300Y-91500D01*
X45500Y-91500D02*
X44500Y-91500D01*
X44500Y-91500D02*
X43500Y-91500D01*
X43500Y-91500D02*
X42500Y-91500D01*
X42500Y-91500D02*
X41500Y-91500D01*
X41500Y-91500D02*
X40500Y-91500D01*
X40500Y-91500D02*
X39500Y-91500D01*
X39500Y-91500D02*
X38500Y-91500D01*
X38500Y-91500D02*
X37500Y-91500D01*
X37500Y-91500D02*
X36500Y-91500D01*
X56000Y-83000D02*
X56000Y-85500D01*
X52750Y-87250D02*
X51750Y-87250D01*
X53000Y-87000D02*
X52750Y-87250D01*
X53000Y-85500D02*
X53000Y-87000D01*
X56000Y-85500D02*
X53000Y-85500D01*
X64850Y-89000D02*
X64850Y-83150D01*
X64700Y-83000D02*
X57000Y-83000D01*
X64850Y-83150D02*
X64700Y-83000D01*
X63500Y-91850D02*
X63500Y-90350D01*
X63500Y-90350D02*
X64850Y-89000D01*
X61500Y-92500D02*
X62850Y-92500D01*
X62850Y-92500D02*
X63500Y-91850D01*
X57000Y-82000D02*
X57000Y-83000D01*
X56000Y-82000D02*
X57000Y-82000D01*
X56000Y-83000D02*
X56000Y-82000D01*
X57000Y-83000D02*
X56000Y-83000D01*
X55150Y-86500D02*
X57000Y-86500D01*
X57000Y-86500D02*
X57000Y-83000D01*
X53850Y-89000D02*
X53850Y-88650D01*
X55150Y-87350D02*
X55150Y-86500D01*
X53850Y-88650D02*
X55150Y-87350D01*
X39830Y-77314D02*
X39830Y-76530D01*
X49500Y-82311D02*
X49244Y-82566D01*
X49244Y-82566D02*
X40110Y-82566D01*
X40110Y-82566D02*
X39830Y-82287D01*
X39830Y-82287D02*
X39830Y-77314D01*
X49500Y-81150D02*
X49500Y-82311D01*
X39050Y-75750D02*
X37700Y-75750D01*
X39830Y-76530D02*
X39050Y-75750D01*
X51000Y-81150D02*
X51000Y-82300D01*
X39450Y-75250D02*
X37700Y-75250D01*
X39600Y-75400D02*
X39450Y-75250D01*
X45500Y-87650D02*
X45500Y-89500D01*
X40500Y-87650D02*
X40500Y-89500D01*
X66500Y-92500D02*
X66500Y-91700D01*
X65350Y-91300D02*
X63500Y-93150D01*
X66100Y-91300D02*
X65350Y-91300D01*
X66500Y-91700D02*
X66100Y-91300D01*
X39500Y-87650D02*
X39500Y-89500D01*
X47000Y-77500D02*
X47000Y-76650D01*
X47000Y-76650D02*
X46500Y-76150D01*
X46500Y-74850D02*
X45950Y-74850D01*
X41850Y-76250D02*
X41300Y-76250D01*
X42000Y-76100D02*
X41850Y-76250D01*
X42600Y-76700D02*
X42600Y-76800D01*
X43300Y-76000D02*
X42600Y-76700D01*
X44100Y-76700D02*
X44000Y-76700D01*
X45950Y-74850D02*
X44100Y-76700D01*
X48000Y-74850D02*
X48000Y-74200D01*
X42050Y-76750D02*
X41300Y-76750D01*
X42400Y-76400D02*
X42050Y-76750D01*
X42400Y-75400D02*
X42400Y-76400D01*
X42600Y-75200D02*
X42400Y-75400D01*
X47600Y-73800D02*
X47500Y-73800D01*
X48000Y-74200D02*
X47600Y-73800D01*
X49500Y-74850D02*
X49450Y-74850D01*
X42850Y-77250D02*
X41300Y-77250D01*
X45400Y-74700D02*
X42850Y-77250D01*
X49450Y-74850D02*
X48800Y-74200D01*
X51000Y-74850D02*
X51000Y-74200D01*
X41350Y-77700D02*
X41300Y-77750D01*
X43700Y-77700D02*
X41350Y-77700D01*
X44400Y-77000D02*
X43700Y-77700D01*
X50200Y-73400D02*
X45400Y-73400D01*
X51000Y-74200D02*
X50200Y-73400D01*
X53650Y-78500D02*
X54900Y-78500D01*
X37700Y-74000D02*
X37700Y-74750D01*
X38800Y-72900D02*
X37700Y-74000D01*
X51600Y-72900D02*
X38800Y-72900D01*
X55000Y-76300D02*
X51600Y-72900D01*
X48000Y-77500D02*
X48000Y-76150D01*
X49000Y-77500D02*
X49000Y-76650D01*
X49000Y-76650D02*
X49500Y-76150D01*
X50000Y-77500D02*
X50000Y-77150D01*
X50000Y-77150D02*
X51000Y-76150D01*
X51000Y-77500D02*
X52100Y-77500D01*
X52100Y-77500D02*
X52350Y-77250D01*
X37500Y-87650D02*
X37500Y-89500D01*
X68500Y-92500D02*
X68500Y-93500D01*
X68500Y-93500D02*
X65500Y-93500D01*
X65500Y-93500D02*
X65500Y-92500D01*
X33000Y-85000D02*
X33400Y-85000D01*
X45500Y-86400D02*
X45500Y-86350D01*
X44900Y-87000D02*
X45500Y-86400D01*
X36500Y-87000D02*
X44900Y-87000D01*
X33400Y-85000D02*
X34300Y-85900D01*
X37500Y-86350D02*
X37500Y-86100D01*
X36300Y-79000D02*
X33000Y-79000D01*
X36700Y-79400D02*
X36300Y-79000D01*
X39200Y-84400D02*
X42000Y-84400D01*
X37500Y-86100D02*
X39200Y-84400D01*
X39500Y-86350D02*
X39500Y-85600D01*
X33300Y-80700D02*
X33000Y-81000D01*
X35400Y-80700D02*
X33300Y-80700D01*
X36300Y-81600D02*
X35400Y-80700D01*
X40500Y-86350D02*
X40500Y-85600D01*
X36300Y-82000D02*
X33000Y-82000D01*
X36500Y-82200D02*
X36300Y-82000D01*
X51000Y-78500D02*
X52350Y-78500D01*
X41500Y-86350D02*
X41500Y-85600D01*
X33400Y-83000D02*
X33000Y-83000D01*
X33800Y-82600D02*
X33400Y-83000D01*
X37400Y-82600D02*
X33800Y-82600D01*
X69000Y-89000D02*
X69000Y-90500D01*
X66150Y-90150D02*
X66150Y-89000D01*
X66500Y-90500D02*
X66150Y-90150D01*
X69000Y-90500D02*
X66500Y-90500D01*
X41500Y-87650D02*
X41500Y-89500D01*
X44500Y-86350D02*
X44500Y-84300D01*
X38200Y-82900D02*
X35600Y-80300D01*
X43100Y-82900D02*
X38200Y-82900D01*
X44500Y-84300D02*
X43100Y-82900D01*
X50000Y-78500D02*
X50000Y-78850D01*
X50000Y-78850D02*
X51000Y-79850D01*
X44500Y-87650D02*
X44500Y-89500D01*
X43500Y-86350D02*
X43500Y-84300D01*
X32500Y-83500D02*
X32000Y-83000D01*
X34000Y-83500D02*
X32500Y-83500D01*
X34200Y-83700D02*
X34000Y-83500D01*
X42400Y-83200D02*
X35000Y-83200D01*
X43500Y-84300D02*
X42400Y-83200D01*
X42500Y-86350D02*
X42500Y-84200D01*
X30900Y-85200D02*
X30900Y-84900D01*
X31200Y-85500D02*
X30900Y-85200D01*
X32300Y-85500D02*
X31200Y-85500D01*
X32500Y-85700D02*
X32300Y-85500D01*
X32500Y-86300D02*
X32500Y-85700D01*
X32700Y-86500D02*
X32500Y-86300D01*
X34300Y-86500D02*
X32700Y-86500D01*
X37200Y-83600D02*
X34300Y-86500D01*
X41900Y-83600D02*
X37200Y-83600D01*
X42500Y-84200D02*
X41900Y-83600D01*
X35150Y-89500D02*
X36500Y-89500D01*
X31500Y-89500D02*
X33850Y-89500D01*
X38500Y-86350D02*
X38500Y-86000D01*
X36100Y-78000D02*
X33000Y-78000D01*
X37000Y-78900D02*
X36100Y-78000D01*
X39500Y-85000D02*
X42000Y-85000D01*
X38500Y-86000D02*
X39500Y-85000D01*
X49000Y-78500D02*
X49000Y-79350D01*
X49000Y-79350D02*
X49500Y-79850D01*
X38500Y-87650D02*
X38500Y-89500D01*
X53650Y-77250D02*
X55450Y-77250D01*
X43350Y-78250D02*
X41300Y-78250D01*
X45700Y-80600D02*
X43350Y-78250D01*
X55100Y-80600D02*
X45700Y-80600D01*
X56200Y-79500D02*
X55100Y-80600D01*
X56200Y-78000D02*
X56200Y-79500D01*
X55450Y-77250D02*
X56200Y-78000D01*
X42500Y-87650D02*
X42500Y-89500D01*
X43500Y-87650D02*
X43500Y-89500D01*
X49250Y-88250D02*
X48550Y-88250D01*
X52200Y-84400D02*
X52200Y-84300D01*
X52200Y-84800D02*
X52200Y-84400D01*
X52200Y-86000D02*
X52200Y-84800D01*
X48550Y-88250D02*
X48500Y-88300D01*
X55150Y-89000D02*
X55150Y-88150D01*
X53850Y-86850D02*
X53850Y-86500D01*
X54400Y-87400D02*
X53850Y-86850D01*
X55150Y-88150D02*
X55100Y-88100D01*
X57000Y-88850D02*
X55300Y-88850D01*
X55300Y-88850D02*
X55150Y-89000D01*
X53850Y-86500D02*
X53850Y-87650D01*
X53850Y-87650D02*
X53250Y-88250D01*
X53250Y-88250D02*
X51750Y-88250D01*
X30400Y-92600D02*
X30400Y-92100D01*
X51750Y-93150D02*
X51500Y-92900D01*
X51500Y-92900D02*
X30700Y-92900D01*
X30700Y-92900D02*
X30400Y-92600D01*
X51750Y-88750D02*
X51750Y-93150D01*
X48000Y-78500D02*
X48000Y-79850D01*
X47150Y-87250D02*
X46600Y-87800D01*
X49250Y-87250D02*
X47150Y-87250D01*
X30400Y-81600D02*
X32000Y-80000D01*
X30400Y-86700D02*
X30400Y-81600D01*
X31200Y-87500D02*
X30400Y-86700D01*
X35000Y-87500D02*
X31200Y-87500D01*
X35300Y-87800D02*
X35000Y-87500D01*
X49250Y-87750D02*
X47550Y-87750D01*
X31100Y-81900D02*
X32000Y-81000D01*
X31100Y-83900D02*
X31100Y-81900D01*
X31700Y-84500D02*
X31100Y-83900D01*
X33700Y-84500D02*
X31700Y-84500D01*
X34400Y-85200D02*
X33700Y-84500D01*
X47550Y-87750D02*
X47500Y-87800D01*
X47000Y-78500D02*
X47000Y-79350D01*
X47000Y-79350D02*
X46500Y-79850D01*
X36650Y-80750D02*
X37700Y-80750D01*
X36600Y-80800D02*
X36650Y-80750D01*
X36650Y-80250D02*
X37700Y-80250D01*
X36600Y-80200D02*
X36650Y-80250D01*
X46500Y-81150D02*
X45450Y-81150D01*
X38450Y-76750D02*
X37700Y-76750D01*
X38500Y-76800D02*
X38450Y-76750D01*
X45450Y-81150D02*
X45400Y-81200D01*
X46950Y-88750D02*
X49250Y-88750D01*
X46900Y-88700D02*
X46950Y-88750D01*
X41300Y-79750D02*
X41550Y-79750D01*
X49250Y-89150D02*
X49250Y-88750D01*
X50400Y-90300D02*
X49250Y-89150D01*
X41550Y-79750D02*
X42400Y-80600D01*
X37700Y-78750D02*
X38450Y-78750D01*
X40650Y-79750D02*
X41300Y-79750D01*
X40300Y-79400D02*
X40650Y-79750D01*
X38450Y-78750D02*
X38500Y-78800D01*
X57000Y-92500D02*
X57000Y-93500D01*
X60500Y-93500D02*
X60500Y-92500D01*
X57000Y-93500D02*
X60500Y-93500D01*
X55000Y-92500D02*
X57000Y-92500D01*
X57000Y-92500D02*
X57000Y-90150D01*
X48000Y-81150D02*
X47650Y-81150D01*
X36950Y-76250D02*
X37700Y-76250D01*
X36600Y-76600D02*
X36950Y-76250D01*
X36600Y-77300D02*
X36600Y-76600D01*
X47650Y-81150D02*
X46900Y-81900D01*
M02*
