G04 (created by PCBNEW (2013-07-07 BZR 4022)-stable) date 8/21/2014 4:39:55 PM*
%MOIN*%
G04 Gerber Fmt 3.4, Leading zero omitted, Abs format*
%FSLAX34Y34*%
G01*
G70*
G90*
G04 APERTURE LIST*
%ADD10C,0.00393701*%
%ADD11C,0.011811*%
%ADD12R,0.085748X0.085748*%
%ADD13C,0.085748*%
%ADD14R,0.365748X0.365748*%
%ADD15R,0.060748X0.035748*%
%ADD16R,0.065748X0.035748*%
%ADD17R,0.095748X0.075748*%
%ADD18R,0.075748X0.095748*%
%ADD19C,0.0748031*%
%ADD20C,0.081748*%
G04 APERTURE END LIST*
G54D10*
G54D11*
X56025Y-74448D02*
X56222Y-75039D01*
X56419Y-74448D01*
X56840Y-75010D02*
X56784Y-75039D01*
X56672Y-75039D01*
X56615Y-75010D01*
X56587Y-74954D01*
X56587Y-74729D01*
X56615Y-74673D01*
X56672Y-74645D01*
X56784Y-74645D01*
X56840Y-74673D01*
X56868Y-74729D01*
X56868Y-74785D01*
X56587Y-74842D01*
X57122Y-75039D02*
X57122Y-74645D01*
X57122Y-74757D02*
X57150Y-74701D01*
X57178Y-74673D01*
X57234Y-74645D01*
X57290Y-74645D01*
X57459Y-75010D02*
X57515Y-75039D01*
X57628Y-75039D01*
X57684Y-75010D01*
X57712Y-74954D01*
X57712Y-74926D01*
X57684Y-74870D01*
X57628Y-74842D01*
X57543Y-74842D01*
X57487Y-74814D01*
X57459Y-74757D01*
X57459Y-74729D01*
X57487Y-74673D01*
X57543Y-74645D01*
X57628Y-74645D01*
X57684Y-74673D01*
X57965Y-75039D02*
X57965Y-74645D01*
X57965Y-74448D02*
X57937Y-74476D01*
X57965Y-74504D01*
X57993Y-74476D01*
X57965Y-74448D01*
X57965Y-74504D01*
X58331Y-75039D02*
X58275Y-75010D01*
X58246Y-74982D01*
X58218Y-74926D01*
X58218Y-74757D01*
X58246Y-74701D01*
X58275Y-74673D01*
X58331Y-74645D01*
X58415Y-74645D01*
X58471Y-74673D01*
X58500Y-74701D01*
X58528Y-74757D01*
X58528Y-74926D01*
X58500Y-74982D01*
X58471Y-75010D01*
X58415Y-75039D01*
X58331Y-75039D01*
X58781Y-74645D02*
X58781Y-75039D01*
X58781Y-74701D02*
X58809Y-74673D01*
X58865Y-74645D01*
X58949Y-74645D01*
X59006Y-74673D01*
X59034Y-74729D01*
X59034Y-75039D01*
X60074Y-75039D02*
X59737Y-75039D01*
X59906Y-75039D02*
X59906Y-74448D01*
X59849Y-74532D01*
X59793Y-74589D01*
X59737Y-74617D01*
X60327Y-74982D02*
X60356Y-75010D01*
X60327Y-75039D01*
X60299Y-75010D01*
X60327Y-74982D01*
X60327Y-75039D01*
X60721Y-74448D02*
X60777Y-74448D01*
X60834Y-74476D01*
X60862Y-74504D01*
X60890Y-74560D01*
X60918Y-74673D01*
X60918Y-74814D01*
X60890Y-74926D01*
X60862Y-74982D01*
X60834Y-75010D01*
X60777Y-75039D01*
X60721Y-75039D01*
X60665Y-75010D01*
X60637Y-74982D01*
X60609Y-74926D01*
X60580Y-74814D01*
X60580Y-74673D01*
X60609Y-74560D01*
X60637Y-74504D01*
X60665Y-74476D01*
X60721Y-74448D01*
X53363Y-73040D02*
X53925Y-73040D01*
X53251Y-73378D02*
X53644Y-72196D01*
X54038Y-73378D01*
X54432Y-73378D02*
X54432Y-72196D01*
X55107Y-73378D01*
X55107Y-72196D01*
X55669Y-73378D02*
X55669Y-72196D01*
X55950Y-72196D01*
X56119Y-72253D01*
X56231Y-72365D01*
X56288Y-72478D01*
X56344Y-72703D01*
X56344Y-72871D01*
X56288Y-73096D01*
X56231Y-73209D01*
X56119Y-73321D01*
X55950Y-73378D01*
X55669Y-73378D01*
X57075Y-72815D02*
X57075Y-73378D01*
X56681Y-72196D02*
X57075Y-72815D01*
X57469Y-72196D01*
X59437Y-73378D02*
X59044Y-72815D01*
X58762Y-73378D02*
X58762Y-72196D01*
X59212Y-72196D01*
X59325Y-72253D01*
X59381Y-72309D01*
X59437Y-72421D01*
X59437Y-72590D01*
X59381Y-72703D01*
X59325Y-72759D01*
X59212Y-72815D01*
X58762Y-72815D01*
X60112Y-73378D02*
X60000Y-73321D01*
X59943Y-73265D01*
X59887Y-73153D01*
X59887Y-72815D01*
X59943Y-72703D01*
X60000Y-72646D01*
X60112Y-72590D01*
X60281Y-72590D01*
X60393Y-72646D01*
X60450Y-72703D01*
X60506Y-72815D01*
X60506Y-73153D01*
X60450Y-73265D01*
X60393Y-73321D01*
X60281Y-73378D01*
X60112Y-73378D01*
X61012Y-73378D02*
X61012Y-72196D01*
X61012Y-72646D02*
X61125Y-72590D01*
X61350Y-72590D01*
X61462Y-72646D01*
X61518Y-72703D01*
X61575Y-72815D01*
X61575Y-73153D01*
X61518Y-73265D01*
X61462Y-73321D01*
X61350Y-73378D01*
X61125Y-73378D01*
X61012Y-73321D01*
X62249Y-73378D02*
X62137Y-73321D01*
X62081Y-73265D01*
X62024Y-73153D01*
X62024Y-72815D01*
X62081Y-72703D01*
X62137Y-72646D01*
X62249Y-72590D01*
X62418Y-72590D01*
X62531Y-72646D01*
X62587Y-72703D01*
X62643Y-72815D01*
X62643Y-73153D01*
X62587Y-73265D01*
X62531Y-73321D01*
X62418Y-73378D01*
X62249Y-73378D01*
X62981Y-72590D02*
X63431Y-72590D01*
X63149Y-72196D02*
X63149Y-73209D01*
X63206Y-73321D01*
X63318Y-73378D01*
X63431Y-73378D01*
X65118Y-72759D02*
X65287Y-72815D01*
X65343Y-72871D01*
X65399Y-72984D01*
X65399Y-73153D01*
X65343Y-73265D01*
X65287Y-73321D01*
X65174Y-73378D01*
X64724Y-73378D01*
X64724Y-72196D01*
X65118Y-72196D01*
X65230Y-72253D01*
X65287Y-72309D01*
X65343Y-72421D01*
X65343Y-72534D01*
X65287Y-72646D01*
X65230Y-72703D01*
X65118Y-72759D01*
X64724Y-72759D01*
X66074Y-73378D02*
X65961Y-73321D01*
X65905Y-73265D01*
X65849Y-73153D01*
X65849Y-72815D01*
X65905Y-72703D01*
X65961Y-72646D01*
X66074Y-72590D01*
X66243Y-72590D01*
X66355Y-72646D01*
X66411Y-72703D01*
X66468Y-72815D01*
X66468Y-73153D01*
X66411Y-73265D01*
X66355Y-73321D01*
X66243Y-73378D01*
X66074Y-73378D01*
X67480Y-73378D02*
X67480Y-72759D01*
X67424Y-72646D01*
X67311Y-72590D01*
X67086Y-72590D01*
X66974Y-72646D01*
X67480Y-73321D02*
X67368Y-73378D01*
X67086Y-73378D01*
X66974Y-73321D01*
X66918Y-73209D01*
X66918Y-73096D01*
X66974Y-72984D01*
X67086Y-72928D01*
X67368Y-72928D01*
X67480Y-72871D01*
X68042Y-73378D02*
X68042Y-72590D01*
X68042Y-72815D02*
X68099Y-72703D01*
X68155Y-72646D01*
X68267Y-72590D01*
X68380Y-72590D01*
X69280Y-73378D02*
X69280Y-72196D01*
X69280Y-73321D02*
X69167Y-73378D01*
X68942Y-73378D01*
X68830Y-73321D01*
X68774Y-73265D01*
X68717Y-73153D01*
X68717Y-72815D01*
X68774Y-72703D01*
X68830Y-72646D01*
X68942Y-72590D01*
X69167Y-72590D01*
X69280Y-72646D01*
X59619Y-81131D02*
X60069Y-81131D01*
X59844Y-81918D02*
X59844Y-81131D01*
X60256Y-81393D02*
X60444Y-81918D01*
X60631Y-81393D02*
X60444Y-81918D01*
X60369Y-82106D01*
X60331Y-82143D01*
X60256Y-82181D01*
X61044Y-81918D02*
X60969Y-81881D01*
X60931Y-81806D01*
X60931Y-81131D01*
X61644Y-81881D02*
X61569Y-81918D01*
X61419Y-81918D01*
X61344Y-81881D01*
X61306Y-81806D01*
X61306Y-81506D01*
X61344Y-81431D01*
X61419Y-81393D01*
X61569Y-81393D01*
X61644Y-81431D01*
X61681Y-81506D01*
X61681Y-81581D01*
X61306Y-81656D01*
X62019Y-81918D02*
X62019Y-81393D01*
X62019Y-81543D02*
X62056Y-81468D01*
X62094Y-81431D01*
X62169Y-81393D01*
X62244Y-81393D01*
X63068Y-81881D02*
X63181Y-81918D01*
X63368Y-81918D01*
X63443Y-81881D01*
X63481Y-81843D01*
X63518Y-81768D01*
X63518Y-81693D01*
X63481Y-81618D01*
X63443Y-81581D01*
X63368Y-81543D01*
X63218Y-81506D01*
X63143Y-81468D01*
X63106Y-81431D01*
X63068Y-81356D01*
X63068Y-81281D01*
X63106Y-81206D01*
X63143Y-81168D01*
X63218Y-81131D01*
X63406Y-81131D01*
X63518Y-81168D01*
X63856Y-81393D02*
X63856Y-82181D01*
X63856Y-81431D02*
X63931Y-81393D01*
X64081Y-81393D01*
X64156Y-81431D01*
X64193Y-81468D01*
X64231Y-81543D01*
X64231Y-81768D01*
X64193Y-81843D01*
X64156Y-81881D01*
X64081Y-81918D01*
X63931Y-81918D01*
X63856Y-81881D01*
X64906Y-81918D02*
X64906Y-81506D01*
X64868Y-81431D01*
X64793Y-81393D01*
X64643Y-81393D01*
X64568Y-81431D01*
X64906Y-81881D02*
X64831Y-81918D01*
X64643Y-81918D01*
X64568Y-81881D01*
X64531Y-81806D01*
X64531Y-81731D01*
X64568Y-81656D01*
X64643Y-81618D01*
X64831Y-81618D01*
X64906Y-81581D01*
X65618Y-81918D02*
X65618Y-81131D01*
X65618Y-81881D02*
X65543Y-81918D01*
X65393Y-81918D01*
X65318Y-81881D01*
X65281Y-81843D01*
X65243Y-81768D01*
X65243Y-81543D01*
X65281Y-81468D01*
X65318Y-81431D01*
X65393Y-81393D01*
X65543Y-81393D01*
X65618Y-81431D01*
X66331Y-81393D02*
X66331Y-82031D01*
X66293Y-82106D01*
X66256Y-82143D01*
X66181Y-82181D01*
X66068Y-82181D01*
X65993Y-82143D01*
X66331Y-81881D02*
X66256Y-81918D01*
X66106Y-81918D01*
X66031Y-81881D01*
X65993Y-81843D01*
X65956Y-81768D01*
X65956Y-81543D01*
X65993Y-81468D01*
X66031Y-81431D01*
X66106Y-81393D01*
X66256Y-81393D01*
X66331Y-81431D01*
X67005Y-81881D02*
X66930Y-81918D01*
X66780Y-81918D01*
X66705Y-81881D01*
X66668Y-81806D01*
X66668Y-81506D01*
X66705Y-81431D01*
X66780Y-81393D01*
X66930Y-81393D01*
X67005Y-81431D01*
X67043Y-81506D01*
X67043Y-81581D01*
X66668Y-81656D01*
X67380Y-81393D02*
X67380Y-81918D01*
X67380Y-81468D02*
X67418Y-81431D01*
X67493Y-81393D01*
X67605Y-81393D01*
X67680Y-81431D01*
X67718Y-81506D01*
X67718Y-81918D01*
X68055Y-81881D02*
X68130Y-81918D01*
X68280Y-81918D01*
X68355Y-81881D01*
X68393Y-81806D01*
X68393Y-81768D01*
X68355Y-81693D01*
X68280Y-81656D01*
X68168Y-81656D01*
X68093Y-81618D01*
X68055Y-81543D01*
X68055Y-81506D01*
X68093Y-81431D01*
X68168Y-81393D01*
X68280Y-81393D01*
X68355Y-81431D01*
X68730Y-81918D02*
X68730Y-81131D01*
X68805Y-81618D02*
X69030Y-81918D01*
X69030Y-81393D02*
X68730Y-81693D01*
X69668Y-81881D02*
X69593Y-81918D01*
X69443Y-81918D01*
X69368Y-81881D01*
X69330Y-81806D01*
X69330Y-81506D01*
X69368Y-81431D01*
X69443Y-81393D01*
X69593Y-81393D01*
X69668Y-81431D01*
X69705Y-81506D01*
X69705Y-81581D01*
X69330Y-81656D01*
G54D12*
X61500Y-92500D03*
G54D13*
X59500Y-92500D03*
X60500Y-92500D03*
G54D14*
X60500Y-86000D03*
G54D15*
X49250Y-88750D03*
X49250Y-88250D03*
X49250Y-87750D03*
X49250Y-87250D03*
X51750Y-87250D03*
X51750Y-87750D03*
X51750Y-88250D03*
X51750Y-88750D03*
G54D16*
X37700Y-74750D03*
X37700Y-75250D03*
X37700Y-75750D03*
X37700Y-76250D03*
X37700Y-76750D03*
X37700Y-77250D03*
X37700Y-77750D03*
X37700Y-78250D03*
X37700Y-78750D03*
X37700Y-79250D03*
X37700Y-79750D03*
X37700Y-80250D03*
X37700Y-80750D03*
X37700Y-81250D03*
X41300Y-81250D03*
X41300Y-80750D03*
X41300Y-80250D03*
X41300Y-79750D03*
X41300Y-79250D03*
X41300Y-78750D03*
X41300Y-78250D03*
X41300Y-77750D03*
X41300Y-77250D03*
X41300Y-76750D03*
X41300Y-76250D03*
X41300Y-75750D03*
X41300Y-75250D03*
X41300Y-74750D03*
G54D17*
X45500Y-87650D03*
X45500Y-86350D03*
X48000Y-74850D03*
X48000Y-76150D03*
X46500Y-74850D03*
X46500Y-76150D03*
G54D18*
X53650Y-77250D03*
X52350Y-77250D03*
X52350Y-78500D03*
X53650Y-78500D03*
G54D17*
X51000Y-79850D03*
X51000Y-81150D03*
X49500Y-79850D03*
X49500Y-81150D03*
X48000Y-79850D03*
X48000Y-81150D03*
X46500Y-79850D03*
X46500Y-81150D03*
X63500Y-93150D03*
X63500Y-91850D03*
X51000Y-74850D03*
X51000Y-76150D03*
X41500Y-87650D03*
X41500Y-86350D03*
X40500Y-87650D03*
X40500Y-86350D03*
X39500Y-87650D03*
X39500Y-86350D03*
X37500Y-87650D03*
X37500Y-86350D03*
X38500Y-86350D03*
X38500Y-87650D03*
G54D18*
X33850Y-89500D03*
X35150Y-89500D03*
G54D17*
X42500Y-86350D03*
X42500Y-87650D03*
X43500Y-86350D03*
X43500Y-87650D03*
X44500Y-86350D03*
X44500Y-87650D03*
X49500Y-74850D03*
X49500Y-76150D03*
G54D18*
X66150Y-89000D03*
X64850Y-89000D03*
X53850Y-86500D03*
X55150Y-86500D03*
X53850Y-89000D03*
X55150Y-89000D03*
G54D17*
X57000Y-88850D03*
X57000Y-90150D03*
G54D19*
X40500Y-91500D03*
X40500Y-90500D03*
X40500Y-89500D03*
X41500Y-91500D03*
X41500Y-90500D03*
X41500Y-89500D03*
X42500Y-91500D03*
X42500Y-90500D03*
X42500Y-89500D03*
X43500Y-91500D03*
X43500Y-90500D03*
X43500Y-89500D03*
X44500Y-91500D03*
X44500Y-90500D03*
X44500Y-89500D03*
X45500Y-91500D03*
X45500Y-90500D03*
X45500Y-89500D03*
X39500Y-91500D03*
X39500Y-90500D03*
X39500Y-89500D03*
X38500Y-91500D03*
X38500Y-90500D03*
X38500Y-89500D03*
X37500Y-91500D03*
X37500Y-90500D03*
X37500Y-89500D03*
X36500Y-91500D03*
X36500Y-90500D03*
X36500Y-89500D03*
X32000Y-88000D03*
X32000Y-87000D03*
X32000Y-86000D03*
X33000Y-86000D03*
X33000Y-87000D03*
X33000Y-88000D03*
X33000Y-85000D03*
X32000Y-85000D03*
X33000Y-84000D03*
X32000Y-84000D03*
X33000Y-83000D03*
X32000Y-83000D03*
X33000Y-82000D03*
X32000Y-82000D03*
X33000Y-81000D03*
X32000Y-81000D03*
X33000Y-80000D03*
X32000Y-80000D03*
X33000Y-79000D03*
X32000Y-79000D03*
X33000Y-78000D03*
X32000Y-78000D03*
X33000Y-77000D03*
X32000Y-77000D03*
X33000Y-76000D03*
X32000Y-76000D03*
G54D20*
X66500Y-92500D03*
X65500Y-92500D03*
X68000Y-89000D03*
X69000Y-89000D03*
G54D19*
X54000Y-92500D03*
X55000Y-92500D03*
X56000Y-82000D03*
X56000Y-83000D03*
X57000Y-83000D03*
X57000Y-82000D03*
X47000Y-77500D03*
X47000Y-78500D03*
X48000Y-77500D03*
X48000Y-78500D03*
X49000Y-77500D03*
X49000Y-78500D03*
X50000Y-77500D03*
X50000Y-78500D03*
X51000Y-77500D03*
X51000Y-78500D03*
X68500Y-92500D03*
X68500Y-91500D03*
M02*
