M48
INCH,TZ
T1C0.002
T2C0.025
T3C0.032
T4C0.045
T5C0.120
%
G90
G05
T1
X32000Y-76000
X32000Y-77000
X32000Y-78000
X32000Y-79000
X32000Y-80000
X32000Y-81000
X32000Y-82000
X32000Y-83000
X32000Y-84000
X32000Y-85000
X32000Y-86000
X32000Y-87000
X32000Y-88000
X33000Y-76000
X33000Y-77000
X33000Y-78000
X33000Y-79000
X33000Y-80000
X33000Y-81000
X33000Y-82000
X33000Y-83000
X33000Y-84000
X33000Y-85000
X33000Y-86000
X33000Y-87000
X33000Y-88000
X36500Y-89500
X36500Y-90500
X36500Y-91500
X37500Y-89500
X37500Y-90500
X37500Y-91500
X38500Y-89500
X38500Y-90500
X38500Y-91500
X39500Y-89500
X39500Y-90500
X39500Y-91500
X40500Y-89500
X40500Y-90500
X40500Y-91500
X41500Y-89500
X41500Y-90500
X41500Y-91500
X42500Y-89500
X42500Y-90500
X42500Y-91500
X43500Y-89500
X43500Y-90500
X43500Y-91500
X44500Y-89500
X44500Y-90500
X44500Y-91500
X45500Y-89500
X45500Y-90500
X45500Y-91500
X47000Y-77500
X47000Y-78500
X48000Y-77500
X48000Y-78500
X49000Y-77500
X49000Y-78500
X50000Y-77500
X50000Y-78500
X51000Y-77500
X51000Y-78500
X54000Y-92500
X55000Y-92500
X56000Y-82000
X56000Y-83000
X57000Y-82000
X57000Y-83000
X68500Y-91500
X68500Y-92500
T2
X30400Y-92100
X30800Y-86000
X30900Y-84900
X31000Y-90800
X31500Y-89500
X34200Y-83700
X34300Y-85900
X34400Y-85200
X35000Y-83200
X35300Y-87800
X35600Y-80300
X36300Y-81600
X36500Y-82200
X36500Y-87000
X36600Y-77300
X36600Y-80200
X36600Y-80800
X36700Y-79400
X37000Y-78900
X37400Y-82600
X38500Y-76800
X38500Y-78800
X38800Y-80100
X39500Y-85600
X39600Y-75400
X40300Y-79400
X40400Y-80600
X40500Y-85600
X41500Y-85600
X42000Y-76100
X42000Y-84400
X42000Y-85000
X42400Y-80600
X42600Y-75200
X42600Y-76800
X43300Y-76000
X44000Y-76700
X44400Y-77000
X45400Y-73400
X45400Y-74700
X45400Y-81200
X46600Y-87800
X46900Y-81900
X46900Y-88700
X47400Y-82200
X47500Y-73800
X47500Y-87800
X47800Y-83000
X48000Y-89800
X48500Y-88300
X48800Y-74200
X50400Y-90300
X51000Y-82300
X51700Y-86300
X52200Y-84300
X52200Y-86000
X54400Y-87400
X54900Y-78500
X55000Y-76300
X55100Y-88100
T3
X65500Y-92500
X66500Y-92500
X68000Y-89000
X69000Y-89000
T4
X59500Y-92500
X60500Y-92500
X61500Y-92500
T5
X60500Y-86000
T0
M30
