G04 (created by PCBNEW (2013-07-07 BZR 4022)-stable) date 8/21/2014 4:39:55 PM*
%MOIN*%
G04 Gerber Fmt 3.4, Leading zero omitted, Abs format*
%FSLAX34Y34*%
G01*
G70*
G90*
G04 APERTURE LIST*
%ADD10C,0.00393701*%
%ADD11R,0.085748X0.085748*%
%ADD12C,0.085748*%
%ADD13R,0.365748X0.365748*%
%ADD14C,0.0748031*%
%ADD15C,0.081748*%
G04 APERTURE END LIST*
G54D10*
G54D11*
X61500Y-92500D03*
G54D12*
X59500Y-92500D03*
X60500Y-92500D03*
G54D13*
X60500Y-86000D03*
G54D14*
X40500Y-91500D03*
X40500Y-90500D03*
X40500Y-89500D03*
X41500Y-91500D03*
X41500Y-90500D03*
X41500Y-89500D03*
X42500Y-91500D03*
X42500Y-90500D03*
X42500Y-89500D03*
X43500Y-91500D03*
X43500Y-90500D03*
X43500Y-89500D03*
X44500Y-91500D03*
X44500Y-90500D03*
X44500Y-89500D03*
X45500Y-91500D03*
X45500Y-90500D03*
X45500Y-89500D03*
X39500Y-91500D03*
X39500Y-90500D03*
X39500Y-89500D03*
X38500Y-91500D03*
X38500Y-90500D03*
X38500Y-89500D03*
X37500Y-91500D03*
X37500Y-90500D03*
X37500Y-89500D03*
X36500Y-91500D03*
X36500Y-90500D03*
X36500Y-89500D03*
X32000Y-88000D03*
X32000Y-87000D03*
X32000Y-86000D03*
X33000Y-86000D03*
X33000Y-87000D03*
X33000Y-88000D03*
X33000Y-85000D03*
X32000Y-85000D03*
X33000Y-84000D03*
X32000Y-84000D03*
X33000Y-83000D03*
X32000Y-83000D03*
X33000Y-82000D03*
X32000Y-82000D03*
X33000Y-81000D03*
X32000Y-81000D03*
X33000Y-80000D03*
X32000Y-80000D03*
X33000Y-79000D03*
X32000Y-79000D03*
X33000Y-78000D03*
X32000Y-78000D03*
X33000Y-77000D03*
X32000Y-77000D03*
X33000Y-76000D03*
X32000Y-76000D03*
G54D15*
X66500Y-92500D03*
X65500Y-92500D03*
X68000Y-89000D03*
X69000Y-89000D03*
G54D14*
X54000Y-92500D03*
X55000Y-92500D03*
X56000Y-82000D03*
X56000Y-83000D03*
X57000Y-83000D03*
X57000Y-82000D03*
X47000Y-77500D03*
X47000Y-78500D03*
X48000Y-77500D03*
X48000Y-78500D03*
X49000Y-77500D03*
X49000Y-78500D03*
X50000Y-77500D03*
X50000Y-78500D03*
X51000Y-77500D03*
X51000Y-78500D03*
X68500Y-92500D03*
X68500Y-91500D03*
M02*
